<svg xmlns="http://www.w3.org/2000/svg" version="1.1" xmlns:xlink="http://www.w3.org/1999/xlink" xmlns:svgjs="http://svgjs.com/svgjs" width="1440" height="560" preserveAspectRatio="none" viewBox="0 0 1440 560"><g mask="url(&quot;#SvgjsMask1002&quot;)" fill="none"><rect width="1440" height="560" x="0" y="0" fill="rgba(19, 19, 19, 1)"></rect><path d="M0,500.818C114.666,518.498,236.939,582.387,339.86,528.832C442.966,475.181,464.108,339.726,512.59,234.092C561.171,128.243,658.055,21.614,623.734,-89.679C588.858,-202.772,442.724,-230.818,347.535,-301.141C275.671,-354.232,212.822,-412.564,132.822,-452.351C37.439,-499.788,-57.782,-571.861,-162.972,-555.032C-270.57,-537.817,-355.646,-451.861,-419.973,-363.909C-481.233,-280.151,-512.617,-177.761,-514.781,-74.014C-516.793,22.454,-472.389,109.661,-431.674,197.139C-391.248,283.996,-356.934,378.352,-278.577,433.475C-198.826,489.579,-96.37,485.959,0,500.818" fill="#0f0f0f"></path><path d="M1440 1033.27C1528.004 1033.781 1607.541 982.45 1675.77 926.865 1738.955 875.389 1765.687 796.888 1812.251 730.001 1871.165 645.373 1981.712 584.561 1985.795 481.527 1989.88 378.44399999999996 1902.6 295.584 1832.463 219.92899999999997 1764.179 146.27300000000002 1688.425 65.918 1588.785 53.28399999999999 1492.124 41.02800000000002 1414.82 128.41699999999997 1321.108 155.09199999999998 1226.267 182.089 1111.621 146.45299999999997 1036.6109999999999 210.462 960.111 275.742 946.485 387.442 932.172 486.985 917.859 586.528 901.085 696.506 954.4680000000001 781.735 1006.6669999999999 865.072 1118.67 878.902 1205.984 924.136 1283.988 964.547 1352.151 1032.76 1440 1033.27" fill="#171717"></path></g><defs><mask id="SvgjsMask1002"><rect width="1440" height="560" fill="#ffffff"></rect></mask></defs></svg>